<svg id="Layer_1" data-name="Layer 1" xmlns="http://www.w3.org/2000/svg" viewBox="0 0 879.19 676.874">
  <path d="M879.19,675.358H0c9.634-24.567,27.424-45.408,52.5-51.59,36.686-9.032,75.511,15.8,112.116,6.464,20.8-5.3,37.17-20.744,54.374-33.569,64.906-48.395,153.847-62.692,230.659-37.084,40.145,13.383,76.726,36.784,117.851,46.737,53.179,12.87,108.792,2.2,163.479.438C784.24,605.04,860.553,626.742,879.19,675.358Z" fill="#f3f5fd"></path>
  <g>
    <path d="M203.477,666.055l-20.853-2.48c.938-7.893,2-17.373,2.072-18.928,0,.1,0,.181,0,.245h21C205.691,645.522,205.691,647.437,203.477,666.055Z" fill="#E98862"></path>
    <path d="M109.8,668.565l-21-.069s.071-21.684.071-23.6h21C109.872,646.818,109.8,668.565,109.8,668.565Z" fill="#E98862"></path>
    <path d="M174.722,663.36l36.01-8.5c-23.315-91.529-42.88-184.953-61.829-277.47l-.267.079-.781-5.329-76.077-4.7s-2.961,37.257-2.96,49.705c.007,61.006,9.71,162.43,14.53,243.589l36.952-1.892c-2.175-78.7-8.048-157.515-7.626-236.236C134.8,502.246,156.868,582.737,174.722,663.36Z" fill="#262626"></path>
    <path d="M135.33,676.687a4.107,4.107,0,0,0,4.076-4.427h0a4.108,4.108,0,0,0-2.658-3.529l-24.443-8.187a3.461,3.461,0,0,0-2.872.32,19.112,19.112,0,0,1-11.468,3.4,17.031,17.031,0,0,1-8.82-3.222,1.547,1.547,0,0,0-2.528,1.2V674.2a2.678,2.678,0,0,0,2.689,2.678Z" fill="#c1d8ed"></path>
    <path d="M229.064,676.687a4.108,4.108,0,0,0,4.076-4.427h0a4.107,4.107,0,0,0-2.659-3.529l-24.442-8.187a3.463,3.463,0,0,0-2.873.32,19.108,19.108,0,0,1-11.467,3.4,17.035,17.035,0,0,1-8.821-3.222,1.546,1.546,0,0,0-2.527,1.2V674.2a2.678,2.678,0,0,0,2.689,2.678Z" fill="#c1d8ed"></path>
  </g>
  <g>
    <path d="M94.8,264.991s7.732-4.1,6.006-25.156l15.976-2.963s-1.8,18.879,6.288,24.873Z" fill="#E98862"></path>
    <g opacity="0.15">
      <path d="M119.8,257.8l-13.272-10.154,10.424-.108A28.735,28.735,0,0,0,119.8,257.8Z"></path>
    </g>
    <path d="M91.744,231.67c1.106,6.388,4.592,12.438,10.227,14.5a40.515,40.515,0,0,0,19.358,2.615c17.49-1.434,14.03-41.2,5.727-48.927s-32.673-2.832-35.638,10.088C89.885,216.63,90.691,225.589,91.744,231.67Z" fill="#E98862"></path>
    <path d="M139.289,196.169c0-5.282-6.574-13.937-24.111-2l-.017.011a49.851,49.851,0,0,0-13.529,1.48,25.471,25.471,0,0,0-8.715,4.479h0c-4.881,3.96-8.439,10.474-6.781,20.945,2.88,18.194,10.332,23.05,14.089,25.282.957.569,1.189.106,1.521-.957a81.127,81.127,0,0,0,2.229-11.969c.571-4.2,4.345-6.87,3.889-11.9-.16-1.758-2.991-8.2,5.772-8.273,4.928-.04,3.086.156,8.346.156.749,0,1.412-.035,2.021-.088l.007,0C142.169,213.336,139.289,201.452,139.289,196.169Z" fill="#0f1011"></path>
    <path d="M109.225,228.846a6.143,6.143,0,1,1-12.244,1,6.041,6.041,0,0,1,5.62-6.625C106.979,223.083,108.948,225.464,109.225,228.846Z" fill="#E98862"></path>
    <path d="M106.527,209.36,102,211.016s1.6,22.6,2.87,28.775,4.807,10.2,8.821,10.543c6.163.529,10.629.571,15.15-1.045,5.1-1.822,4.384-15.5,4.384-15.5s-16.405,1.777-20.944-.4S106.527,209.36,106.527,209.36Z" fill="#0f1011"></path>
    <g>
      <circle cx="116.763" cy="225.3" r="1.449" fill="#0f1011"></circle>
      <circle cx="128.194" cy="224.363" r="1.449" fill="#0f1011"></circle>
      <path d="M130.705,221.275H130.7l-3.839-.049a.68.68,0,0,1-.672-.689.708.708,0,0,1,.69-.672l3.839.048a.681.681,0,0,1-.009,1.362Z" fill="#0f1011"></path>
      <path d="M113.634,222.675a.681.681,0,0,1-.158-1.344l3.785-.91a.681.681,0,1,1,.319,1.324l-3.785.911A.745.745,0,0,1,113.634,222.675Z" fill="#0f1011"></path>
    </g>
    <g opacity="0.15">
      <path d="M123.2,233.337a.5.5,0,0,1-.147-.978l2.947-.905-2.061-4.591a.5.5,0,1,1,.912-.409l2.293,5.107a.5.5,0,0,1-.309.683l-3.488,1.071A.509.509,0,0,1,123.2,233.337Z"></path>
    </g>
    <path d="M117.433,236.712s5.349.564,9.1-.746c0,0-.03,3.522-4.263,3.87S117.433,236.712,117.433,236.712Z" fill="#fff"></path>
  </g>
  <g>
    <rect x="190.409" width="621.087" height="449.786" fill="#dee8f5"></rect>
    <rect x="225.001" y="277.706" width="267.462" height="133.311" fill="#c1d8ed"></rect>
    <g>
      <rect x="249.934" y="309.117" width="112.284" height="11.232" fill="#fff"></rect>
      <rect x="249.934" y="338.746" width="112.284" height="11.232" fill="#fff"></rect>
      <rect x="249.934" y="368.375" width="112.284" height="11.232" fill="#fff"></rect>
    </g>
    <rect x="190.409" width="621.087" height="37.051" fill="#c1d8ed"></rect>
    <circle cx="790.694" cy="18.526" r="9.296" fill="#fff"></circle>
  </g>
  <g>
    <rect x="225.001" y="74.959" width="267.462" height="172.943" fill="#c1d8ed"></rect>
    <g>
      <path d="M473.413,229H243.289a.974.974,0,0,1-.973-.974V95.619a.974.974,0,0,1,1.947,0V227.051h229.15a.974.974,0,0,1,0,1.948Z" fill="#fff"></path>
      <path d="M250.91,219.266a.973.973,0,0,1-.641-1.708l61.722-53.866a.972.972,0,0,1,1.265-.012l18.468,15.468,51.964-37.641a.973.973,0,0,1,1.136,0l30.432,21.7,49.925-40.323a.974.974,0,1,1,1.224,1.516h0l-50.5,40.787a.975.975,0,0,1-1.177.035l-30.463-21.727-52.012,37.676a.973.973,0,0,1-1.2-.042L312.644,165.7l-61.095,53.319A.97.97,0,0,1,250.91,219.266Z" fill="#fff"></path>
      <circle cx="463.888" cy="125.043" r="4.544" fill="#fff"></circle>
      <g opacity="0.77">
        <g>
          <rect x="242.637" y="106.567" width="230.777" height="0.649" fill="#fff"></rect>
          <rect x="242.637" y="126.583" width="230.777" height="0.649" fill="#fff"></rect>
          <rect x="242.637" y="146.598" width="230.777" height="0.649" fill="#fff"></rect>
          <rect x="242.637" y="166.613" width="230.777" height="0.649" fill="#fff"></rect>
          <rect x="242.637" y="186.628" width="230.777" height="0.649" fill="#fff"></rect>
          <rect x="242.637" y="206.643" width="230.777" height="0.649" fill="#fff"></rect>
        </g>
      </g>
    </g>
  </g>
  <g>
    <rect x="520.932" y="74.959" width="251.611" height="151.09" fill="#c1d8ed"></rect>
    <g>
      <rect x="547.128" y="115.259" width="68.031" height="11.232" fill="#fff"></rect>
      <rect x="547.128" y="144.888" width="68.031" height="11.232" fill="#fff"></rect>
      <rect x="547.128" y="174.517" width="68.031" height="11.232" fill="#fff"></rect>
    </g>
  </g>
  <g>
    <rect x="520.932" y="259.928" width="251.611" height="151.09" fill="#c1d8ed"></rect>
    <rect x="545.867" y="317.082" width="24.842" height="69.793" fill="#fff"></rect>
    <rect x="677.831" y="325.748" width="24.842" height="61.127" fill="#fff"></rect>
    <rect x="589.855" y="298.616" width="24.842" height="88.258" fill="#fff"></rect>
    <rect x="633.843" y="337.779" width="24.842" height="49.096" fill="#fff"></rect>
    <rect x="721.818" y="312.826" width="24.842" height="74.049" fill="#fff"></rect>
  </g>
  <g>
    <path d="M268.551,319.7s8.209-3.989,14.375-2.459,3.276,4.185-1.211,5.129-14.342,2.479-14.342,2.479" fill="#E98862"></path>
    <path d="M273.346,319.515s15.218-1.6,15.376,2.062c0,0,.667,11.3-1.4,13.043-3.122,2.636-18.58.572-18.58.572Z" fill="#E98862"></path>
  </g>
  <path d="M233.116,338.18H173.637a10.5,10.5,0,0,1-8.841-4.836l-37.582-58.668L144.9,263.348l34.484,53.832h53.735Z" fill="#25283D"></path>
  <path d="M152.8,373.968c-4.19,9.63-86.52,13.63-87.62-3.31-.7-10.78,8.8-20.19,8.8-41.2s-19.33-47.84-3.58-63.59c4.57-4.57,12.46-7.52,22.08-7.53.72,5.61,34.78,5.63,35.04.13,1.3.02,2.31.04,2.94.07,33.18,1.43,18.6,39.19,18.28,66.93C148.353,357.928,157.123,364.048,152.8,373.968Z" fill="#25283D"></path>
  <path d="M127.523,258.468c-.26,5.5-3.25,13.59-12.48,14.2-12.3.81-21.84-8.72-22.56-14.33h.03C104.623,258.338,120.463,258.358,127.523,258.468Z" fill="#E98862"></path>
  <g>
    <g>
      <circle cx="224.383" cy="327.68" r="60" fill="#24D4B3"></circle>
      <g opacity="0.29">
        <circle cx="224.383" cy="327.68" r="38.896" fill="#fff"></circle>
      </g>
    </g>
    <path d="M211.652,341.573l3.628-5.626c2.876,2.2,5.391,3.328,8.067,3.328,3.206,0,4.617-1.331,4.617-3.9,0-5.821-14.934-5.716-14.934-15.926,0-6.562,4.546-10.743,11.715-10.743a14.028,14.028,0,0,1,10.77,4.8l-4.162,4.767c-2.056-1.871-3.8-2.855-6.162-2.855-2.722,0-4.2,1.1-4.2,3.639,0,5.395,14.934,4.924,14.934,15.738,0,6.5-4.3,11.2-12.58,11.2A18.823,18.823,0,0,1,211.652,341.573Zm9.95-38.416h5.519v8.148H221.6Zm0,39.433h5.519v8.94H221.6Z" fill="#fff"></path>
  </g>
  <path d="M287.317,334.624a3.422,3.422,0,0,1-.929.527c-1.794.371-6.315-.711-7.04-1.965-1.18-2.041-.448-9.415.593-12.091.977-2.5,5.843-1.453,6.482-1.335a.277.277,0,0,0,.061.016c1.327.364,2.2.932,2.237,1.806C288.721,321.582,289.391,332.872,287.317,334.624Z" fill="#E98862"></path>
  <g>
    <path d="M154.838,341.441s2.408-13.154,11.714-10.865c5.871,1.445,22.934-1.134,23.193,6.406.225,6.542-15.8,8.285-21.1,7.74C163.888,344.233,154.838,341.441,154.838,341.441Z" fill="#E98862"></path>
    <path d="M163.144,330.431s13.843-2.042,16.935-.728c2.738,1.164-4,4.8-4,4.8Z" fill="#E98862"></path>
  </g>
  <path d="M167.572,348.745l-61.88-1.886a10.9,10.9,0,0,1-9.323-5.834L65.818,282.77l19.311-10.127,27.592,52.615,55.515,1.693Z" fill="#25283D"></path>
  <rect x="688.164" y="649.376" width="115.041" height="25.982" rx="8.513" fill="#24D4B3"></rect>
  <rect x="672.904" y="623.393" width="115.041" height="25.982" rx="8.513" fill="#24D4B3"></rect>
  <rect x="688.164" y="597.411" width="115.041" height="25.982" rx="8.513" fill="#24D4B3"></rect>
  <rect x="680.534" y="571.9" width="115.041" height="25.982" rx="8.513" fill="#24D4B3"></rect>
  <rect x="665.274" y="545.918" width="115.041" height="25.982" rx="8.513" fill="#24D4B3"></rect>
  <rect x="680.534" y="519.936" width="115.041" height="25.982" rx="8.513" fill="#24D4B3"></rect>
  <g>
    <circle cx="695.419" cy="150.504" r="57.775" fill="#dee8f5"></circle>
    <circle cx="695.419" cy="150.504" r="46.765" fill="#c1d8ed"></circle>
    <g>
      <path d="M678.513,122.919h18.724c11.355,0,20.174,3.119,20.174,13.567,0,4.907-2.745,10.131-7.207,11.809v.336c5.587,1.452,9.9,5.569,9.9,12.876,0,11.128-9.411,16.115-21.309,16.115H678.513Zm18.152,21.909c6,0,8.656-2.537,8.656-6.515,0-4.214-2.8-5.852-8.568-5.852H690.88v12.367Zm1.125,23.251c6.742,0,10.226-2.4,10.226-7.373,0-4.8-3.425-6.751-10.226-6.751h-6.91v14.124Z" fill="#fff"></path>
      <rect x="670.732" y="122.919" width="12.144" height="7.36" fill="#fff"></rect>
      <rect x="670.732" y="170.262" width="12.144" height="7.36" fill="#fff"></rect>
      <rect x="678.422" y="119.88" width="12.144" height="6.078" transform="translate(807.413 -561.575) rotate(90)" fill="#fff"></rect>
      <rect x="689.364" y="119.88" width="12.144" height="6.078" transform="translate(818.355 -572.516) rotate(90)" fill="#fff"></rect>
      <rect x="678.422" y="174.583" width="12.144" height="6.078" transform="translate(862.116 -506.872) rotate(90)" fill="#fff"></rect>
      <rect x="689.364" y="174.583" width="12.144" height="6.078" transform="translate(873.058 -517.813) rotate(90)" fill="#fff"></rect>
    </g>
  </g>
  <g>
    <circle cx="425.673" cy="342.746" r="44.399" fill="#dee8f5"></circle>
    <circle cx="425.673" cy="342.746" r="35.938" fill="#c1d8ed"></circle>
    <g>
      <polygon points="412.13 341.139 425.673 335.096 439.215 341.139 425.673 313.988 412.13 341.139" fill="#fff"></polygon>
      <polygon points="412.13 344.352 425.673 350.395 439.215 344.352 425.673 371.503 412.13 344.352" fill="#fff"></polygon>
      <polygon points="439.208 341.137 425.676 347.174 412.137 341.137 425.676 335.094 439.208 341.137" fill="#dee8f5"></polygon>
    </g>
  </g>
</svg>